HIERARCHY
ROOT Hips
{
	OFFSET	0.00	0.00	0.00
	CHANNELS 6 Xposition Yposition Zposition Zrotation Xrotation Yrotation
	JOINT Spine
	{
		OFFSET	 0.00	0.01	 0.00
		CHANNELS 3 Zrotation Xrotation Yrotation
		JOINT Spine1
		{
			OFFSET	 0.00	 2.45913012437421	 0.00
			CHANNELS 3 Zrotation Xrotation Yrotation
            JOINT Neck
            {
                OFFSET	 0.00	 2.48462964506057	 0.00
                CHANNELS 3 Zrotation Xrotation Yrotation
                JOINT Head
                {
                    OFFSET	 0.00	 0.927524780924562	 0.00
                    CHANNELS 3 Zrotation Xrotation Yrotation
                    End Site 
                    {
                        OFFSET	 0.00	 1.14999962169752	 0.00
                    }
                }
            }
			JOINT LeftShoulder
			{
				OFFSET	 0.00	 2.48462964506057	 0.00
				CHANNELS 3 Zrotation Xrotation Yrotation
				JOINT LeftUpArm
				{
					OFFSET	 0.00	 1.24881979654096	 0.00
					CHANNELS 3 Zrotation Xrotation Yrotation
					JOINT LeftForeArm
					{
						OFFSET	 0.00	2.59758046908119	 0.00
						CHANNELS 3 Zrotation Xrotation Yrotation
						JOINT LeftHand
						{
							OFFSET	 0.00	2.45542024364365	 0.00
							CHANNELS 3 Zrotation Xrotation Yrotation
							JOINT LeftHandThumb 
							{
								OFFSET	 0.00	0.00	 0.00
								CHANNELS 3 Zrotation Xrotation Yrotation
								End Site
								{
									OFFSET	 0.00	0.00	1.00000003353624
								}
							}
							JOINT L_Wrist_End 
							{
								OFFSET	 0.00	0.99999967115358	 0.00
								CHANNELS 3 Zrotation Xrotation Yrotation
								End Site 
								{
									OFFSET	 0.00	 0.00	 0.00
								}
							}
						}
					}
				}
			}
			JOINT RightShoulder
			{
				OFFSET	 0.00	 2.48462964506057	 0.00
				CHANNELS 3 Zrotation Xrotation Yrotation
				JOINT RightUpArm
				{
					OFFSET	 0.00	 1.24881979654096	 0.00
					CHANNELS 3 Zrotation Xrotation Yrotation
					JOINT RightForeArm
					{
						OFFSET	 0.00	2.59758046908119	 0.00
						CHANNELS 3 Zrotation Xrotation Yrotation
						JOINT RightHand
						{
							OFFSET	 0.00	2.45542024364365	 0.00
							CHANNELS 3 Zrotation Xrotation Yrotation
							JOINT RightHandThumb 
							{
								OFFSET	 0.00	0.00	 0.00
								CHANNELS 3 Zrotation Xrotation Yrotation
								End Site
								{
									OFFSET	 0.00	0.00	1.00000003353624
								}
							}
							JOINT R_Wrist_End 
							{
								OFFSET	 0.00	0.99999967115358	 0.00
								CHANNELS 3 Zrotation Xrotation Yrotation
								End Site 
								{
									OFFSET	 0.00	 0.00	 0.00
								}
							}
						}
					}
				}
			}
		}
	}
	JOINT LeftUpLeg
	{
		OFFSET	 1.2719394002717	 0.00	 0.00
		CHANNELS 3 Zrotation Xrotation Yrotation
		JOINT LeftLowLeg
		{
			OFFSET	 0.00	-4.3429100912261	 0.00
			CHANNELS 3 Zrotation Xrotation Yrotation
			JOINT LeftFoot
			{
				OFFSET	 0.00	-4.48767017425826	 0.00
				CHANNELS 3 Zrotation Xrotation Yrotation
				JOINT LeftToeBase
                {
                    OFFSET	 0.00	0.00	 1.51507020887566
                    CHANNELS 3 Zrotation Xrotation Yrotation
                    End Site 
                    {
                        OFFSET	 0.00	0.00	 0.75000010571191
                    }
                }
			}
		}
	}
	JOINT RightUpLeg
	{
		OFFSET	 -1.2719393604653	 0.00	 0.00
		CHANNELS 3 Zrotation Xrotation Yrotation
		JOINT RightLowLeg
		{
			OFFSET	 0.00	-4.3429100912261	 0.00
			CHANNELS 3 Zrotation Xrotation Yrotation
			JOINT RightFoot
			{
				OFFSET	 0.00	-4.48767017425826	 0.00
				CHANNELS 3 Zrotation Xrotation Yrotation
				JOINT RightToeBase
                {
                    OFFSET	 0.00	0.00	 1.51507020887566
                    CHANNELS 3 Zrotation Xrotation Yrotation
                    End Site 
                    {
                        OFFSET	 0.00	0.00	 0.749999965609858
                    }
                }   
			}
		}
	}
}
MOTION 
Frames:	10 
Frame Time: 0.02 
  -3.655320129394531 -8.790089721679687 9.254509887695313 41.8494 89.0303 1470.89 1.08064 -5.07439 -3.75425 -0.632074 14.9684 2.88754 16.7151 27.4297 341.171 96.7537 -79.6402 -619.107 -110.958405 -2.11144 366.792 -48.874 10.0162 -17.3888 0.0 88.1815 0.0 15.048 -17.173 -19.3004 0.0 0.0 0.0 0.0 0.0 0.0 113.751 -3.54723 -360.331 49.4348 7.49738 22.1282 0.0 75.7886 0.0 6.4527 -2.80734 62.4854 0.0 0.0 0.0 0.0 0.0 0.0 2.40954 -19.2775 -7.6216 0.0 31.414 0.0 -15.5412 -2.288601 7.14995 0.0 -26.233799 0.0 8.21139 -6.55129 9.15559 0.0 20.7189 0.0 22.2368 -6.7253 -7.9239 0.0 -19.26867 0.0 
  -3.7084698486328125 -8.765349731445312 9.254539794921875 11.1707 89.1287 1502.98 1.47824 -4.82833 -3.53362 -0.565636 14.4782 3.02738 12.1203 29.7571 346.256 95.8022 -79.778 -619.383 -110.7198 -2.26414 366.604 -48.8799 9.96973 -15.3853 0.0 88.7244 0.0 15.305 -17.4812 -17.3866 0.0 0.0 0.0 0.0 0.0 0.0 113.6393 -3.77891 -360.131 49.4738 6.5832 19.8956 0.0 76.2497 0.0 5.85445 -3.1914 61.3727 0.0 0.0 0.0 0.0 0.0 0.0 2.61965 -20.3581 -5.64774 0.0 33.7794 0.0 -14.4909 -2.6518002 7.8435 0.0 -26.3292 0.0 8.24725 -7.15551 8.03656 0.0 20.367 0.0 22.3079 -6.4603004 -8.12997 0.0 -19.23117 0.0 
  -3.755329895019531 -8.7402197265625 9.253189697265626 -11.7058 88.9219 1527.26 1.91663 -4.65407 -3.2923 -0.527655 14.033 3.17646 7.82518 31.8048 351.03 94.1713 -79.8936 -620.133 -110.6145 -2.46791 366.179 -48.8599 9.81857 -13.4203 0.0 89.3697 0.0 15.8829 -17.5789 -16.3411 0.0 0.0 0.0 0.0 0.0 0.0 113.5294 -4.15384 -359.738 49.4668 5.59096 17.2911 0.0 76.8531 0.0 4.89946 -3.38906 60.529 0.0 0.0 0.0 0.0 0.0 0.0 2.79244 -21.187 -4.40038 0.0 36.3031 0.0 -13.9989 -3.0599995 8.43291 0.0 -26.244 0.0 8.27746 -7.56945 6.89429 0.0 19.9156 0.0 22.2718 -6.222 -8.36805 0.0 -19.18271 0.0 
  -3.795610046386719 -8.715339965820313 9.250700073242188 -22.2438 88.6139 1539.09 2.35516 -4.4636 -2.98061 -0.58102 13.4345 3.37033 3.43048 33.8814 355.964 93.3635 -80.0222 -620.496 -110.5118 -2.76823 365.791 -48.8088 9.65565 -11.4853 0.0 90.0979 0.0 16.9076 -17.5171 -15.7175 0.0 0.0 0.0 0.0 0.0 0.0 113.5121 -4.55282 -359.461 49.5694 4.66974 15.0889 0.0 77.5084 0.0 4.51971 -3.41217 59.3164 0.0 0.0 0.0 0.0 0.0 0.0 2.99376 -21.6838 -3.64975 0.0 38.789 0.0 -13.9869 -3.3572998 8.82098 0.0 -26.7041 0.0 8.30816 -7.8732 5.8901 0.0 19.5041 0.0 22.466 -6.1101 -8.50677 0.0 -19.02395 0.0 
  -3.8308401489257813 -8.691640014648437 9.248300170898437 -25.7632 88.2912 1543.86 2.71799 -4.31953 -2.67897 -0.617913 12.9856 3.5805 -0.236062 35.4408 359.987 92.2369 -80.1329 -621.028 -110.5772 -3.03049 365.352 -48.5657 9.36241 -9.63853 0.0 91.0921 0.0 18.3428 -17.3743 -14.4216 0.0 0.0 0.0 0.0 0.0 0.0 113.5264 -4.95166 -358.932 49.6889 3.6128 12.879 0.0 78.2492 0.0 4.8251 -3.22521 59.0793 0.0 0.0 0.0 0.0 0.0 0.0 3.28928 -21.8699 -2.96965 0.0 41.0897 0.0 -13.9111 -3.8213997 9.2144 0.0 -26.5811 0.0 8.3477 -8.08836 5.10305 0.0 19.1605 0.0 22.7779 -6.0441 -8.67215 0.0 -19.14881 0.0 
  -3.862640075683594 -8.670709838867188 9.246580200195313 -27.6933 88.0057 1547.12 3.09857 -4.26669 -2.37883 -0.929917 12.6869 3.71977 -3.24018 36.5743 363.358 91.7523 -80.1598 -621.252 -110.5671 -3.36915 364.898 -48.2244 9.14879 -7.8697 0.0 92.2099 0.0 19.6837 -17.2321 -12.6601 0.0 0.0 0.0 0.0 0.0 0.0 113.7138 -5.26354 -358.655 49.901 2.76128 11.2101 0.0 78.9952 0.0 5.09606 -2.85119 58.5835 0.0 0.0 0.0 0.0 0.0 0.0 3.64394 -21.8054 -2.4586 0.0 43.0267 0.0 -13.5776 -4.162901 9.48058 0.0 -26.7766 0.0 8.39353 -8.27277 4.58419 0.0 18.8799 0.0 23.0695 -6.127899 -9.113 0.0 -19.1842 0.0 
  -3.8917300415039064 -8.648699951171874 9.24510009765625 -29.417 87.735 1550.22 3.25437 -4.24928 -2.22724 -1.03392 12.5025 3.8116 -5.10935 37.1948 365.444 91.0854 -80.1619 -621.638 -110.6287 -3.81052 364.349 -48.0275 8.89969 -6.2324 0.0 93.3675 0.0 20.3533 -16.9212 -11.1342 0.0 0.0 0.0 0.0 0.0 0.0 113.7991 -5.40922 -358.579 50.1968 1.97795 9.79405 0.0 79.8942 0.0 4.56504 -2.78126 57.5434 0.0 0.0 0.0 0.0 0.0 0.0 4.06128 -21.5871 -1.9299 0.0 44.6149 0.0 -13.2922 -4.5039005 9.53479 0.0 -26.786999 0.0 8.40662 -8.49651 4.12539 0.0 18.6971 0.0 23.3511 -6.3115997 -9.59729 0.0 -19.11167 0.0 
  -3.9200201416015625 -8.623170166015624 9.244210205078126 -29.6689 87.5572 1551.72 3.35571 -4.14206 -2.048 -1.26735 12.3582 3.90358 -5.92894 37.5003 366.374 90.9478 -80.2022 -622.135 -110.6253 -4.18421 363.952 -47.9035 8.70413 -4.86062 0.0 94.4395 0.0 20.7392 -16.5407 -10.0471 0.0 0.0 0.0 0.0 0.0 0.0 113.7801 -5.42286 -358.321 50.4967 0.996266 8.07257 0.0 80.6899 0.0 3.65837 -2.82572 56.5903 0.0 0.0 0.0 0.0 0.0 0.0 4.46905 -21.0813 -1.48006 0.0 45.7499 0.0 -13.0704 -4.7393 9.44185 0.0 -26.8724 0.0 8.34474 -8.71149 3.87079 0.0 18.658 0.0 23.6316 -6.5217 -10.1035 0.0 -19.16029 0.0 
  -3.9488101196289063 -8.592930297851563 9.244110107421875 -31.8525 87.4433 1555.05 3.36306 -3.97508 -1.78595 -1.56684 12.0976 4.07593 -4.95717 37.7852 365.172 91.2881 -80.2699 -622.262 -110.5478 -4.39005 363.645 -47.9421 8.45749 -3.53637 0.0 95.3929 0.0 21.1365 -16.1254 -9.36198 0.0 0.0 0.0 0.0 0.0 0.0 113.7323 -5.42876 -358.469 50.8658 0.288314 6.72028 0.0 81.4135 0.0 2.67893 -3.2427 55.3909 0.0 0.0 0.0 0.0 0.0 0.0 4.76002 -20.3978 -1.29502 0.0 46.3134 0.0 -13.441 -4.8078003 8.86774 0.0 -27.017101 0.0 8.17724 -9.1246 3.83966 0.0 18.8998 0.0 23.9681 -6.7996006 -10.5821 0.0 -19.3775 0.0 
  -3.983340148925781 -8.561790161132812 9.245260009765625 -36.0509 87.2655 1560.11 3.23914 -3.71323 -1.46299 -1.81043 11.7006 4.33543 -2.16157 37.9421 361.778 91.7958 -80.355 -622.089 -110.4668 -4.54543 363.276 -47.9205 8.08984 -1.85987 0.0 96.2761 0.0 22.3992 -15.5748 -8.00354 0.0 0.0 0.0 0.0 0.0 0.0 113.655 -5.42262 -358.798 51.197 -0.123282 5.46019 0.0 81.9743 0.0 1.60461 -3.62913 54.3526 0.0 0.0 0.0 0.0 0.0 0.0 5.07534 -19.5934 -1.36122 0.0 46.2922 0.0 -13.9034 -4.343399 7.87231 0.0 -27.1621 0.0 8.17555 -9.81803 4.74547 0.0 19.4083 0.0 24.3542 -7.2607 -11.6802 0.0 -19.41455 0.0 
